<?xml version="1.0" encoding="UTF-8"?><svg id="Layer_2" xmlns="http://www.w3.org/2000/svg" viewBox="0 0 1049.7 1442.18"><defs><style>.cls-1{fill:#fff;}</style></defs><g id="Layer_1-2"><g><path class="cls-1" d="m787.1,789.06l39.15,115.28-301.4,138.82-301.4-138.82,39.15-115.28S-11.21,916.32.36,966.93c11.57,50.61,524.49,187.02,524.49,187.02,0,0,512.93-136.41,524.49-187.02,11.57-50.61-262.25-177.86-262.25-177.86Z"/><polygon class="cls-1" points="411.52 263.18 476.13 130.98 275.11 884.5 524.85 987.17 774.59 884.5 550.46 44.35 473.22 0 291.98 287.28 233.17 231.37 267.88 387.54 411.52 263.18"/><path class="cls-1" d="m626.89,1220.85l-17.13-45.21-27.98,10.6,16.42,43.34h-146.68l16.42-43.34-27.98-10.6-17.13,45.21h-.01s-165.19-121.15-165.19-121.15l61.11,198.52,186.73,130.35,19.39,13.59,19.39-13.59,186.73-130.35,61.11-198.52-165.19,121.14h0Zm-314.09-43.51l87.48,64.15-59.47,26.82-28.01-90.97Zm48.9,114.37h0s61.46-27.72,61.46-27.72h0s59.49,112.17,59.49,112.17l-120.96-84.45Zm163.15,100.25l-70.14-132.45h140.29l-70.14,132.45Zm163.15-100.25l-120.96,84.45,59.49-112.16h0s61.46,27.71,61.46,27.71h0Zm48.9-114.37l-28.01,90.97-59.47-26.82,87.48-64.15Z"/></g></g></svg>