<?xml version="1.0" encoding="UTF-8" standalone="no"?><!DOCTYPE svg PUBLIC "-//W3C//DTD SVG 1.1//EN" "http://www.w3.org/Graphics/SVG/1.1/DTD/svg11.dtd"><svg width="100%" height="100%" viewBox="0 0 367 382" version="1.1" xmlns="http://www.w3.org/2000/svg" xmlns:xlink="http://www.w3.org/1999/xlink" xml:space="preserve" xmlns:serif="http://www.serif.com/" style="fill-rule:evenodd;clip-rule:evenodd;stroke-linejoin:round;stroke-miterlimit:2;"><rect id="Artboard1" x="-1073" y="0" width="1440" height="900" style="fill:none;"/><clipPath id="_clip1"><rect id="Artboard11" serif:id="Artboard1" x="-1073" y="0" width="1440" height="900"/></clipPath><g clip-path="url(#_clip1)"><rect x="-1073" y="0" width="1440" height="900" style="fill:#fdf7ef;"/><g><path d="M57.037,-43.565c25.905,68.315 -57.037,217.569 -36.437,273.247c28.312,76.517 333.302,99.314 368.179,165.618l0,-438.865c0,0 -344.153,-32.727 -331.742,0Z" style="fill:#6341ab;"/><path d="M129.812,-43.565c25.905,68.315 -73.837,200.187 -54.085,256.171c19.752,55.985 278.175,35.574 313.052,101.878l15.78,-358.049c0,0 -288.406,-36.018 -274.747,0Z" style="fill:#a57bff;"/></g><path d="M-283.15,273.807l-2.392,-1.972l67.788,-91.282l-19.14,44.828l54.075,-48.954l2.224,2.156l-78.856,93.565l8.348,-33.879l-32.047,35.538Zm-25.652,2.142l-9.495,-7.727l5.019,11.148l-5.763,8.384l9.218,-4.182l9.852,9.223l-5.534,-12.473l6.782,-8.066l-10.079,3.693Zm32.145,29.653l2.306,2.074l32.12,-33.022l-3.285,16.143l38.609,-33.619l-7.449,27.211l81.368,-93.301l-2.246,-2.138l-62.007,60.302l4.266,-19.593l-34.011,31.956l7.125,-25.104l-56.796,69.091Zm-33.086,50.341l-7.531,-6.129l3.983,8.848l-4.579,6.662l7.276,-3.301l7.91,7.405l-4.442,-10.012l5.385,-6.405l-8.002,2.932Zm22.137,-3.789l-1.396,-2.771l133.239,-72.507l-19.133,18.69l84.304,-36.91l1.353,2.791l-136.56,71.773l17.949,-17.637l-79.756,36.571Zm52.516,-5.988l-7.53,-6.129l3.983,8.848l-4.58,6.662l7.276,-3.301l7.911,7.405l-4.443,-10.012l5.386,-6.405l-8.003,2.932Zm89.535,13.322l-99.991,15.133l-0.661,-3.024l40.34,-11.105l-14.653,-4.488l66.832,-13.038l-24.08,-5.812l141.521,-21.767l0.582,3.043l-93.055,20.161l31.526,3.854l-78.884,12.742l30.523,4.301Zm-81.478,33.118l-7.53,-6.128l3.983,8.847l-4.579,6.663l7.275,-3.301l7.911,7.404l-4.443,-10.012l5.386,-6.405l-8.003,2.932Zm-40.505,57.78l7.53,6.129l8.003,-2.932l-5.386,6.405l4.443,10.012l-7.911,-7.405l-7.275,3.301l4.579,-6.662l-3.983,-8.848Zm30.731,-10.509l-0.228,3.081l53.462,7.5l-20.762,7.849l86.433,1.352l0.196,-3.083l-47.943,-6.066l24.536,-8.439l-95.694,-2.194Z" style="fill:#6341ab;stroke:#6341ab;stroke-width:1px;"/></g></svg>