<?xml version="1.0" encoding="UTF-8" standalone="no"?><!DOCTYPE svg PUBLIC "-//W3C//DTD SVG 1.1//EN" "http://www.w3.org/Graphics/SVG/1.1/DTD/svg11.dtd"><svg width="100%" height="100%" viewBox="0 0 1206 475" version="1.1" xmlns="http://www.w3.org/2000/svg" xmlns:xlink="http://www.w3.org/1999/xlink" xml:space="preserve" xmlns:serif="http://www.serif.com/" style="fill-rule:evenodd;clip-rule:evenodd;stroke-linejoin:round;stroke-miterlimit:2;"><rect id="Artboard2" x="0" y="0" width="1205.29" height="474.956" style="fill:none;"/><clipPath id="_clip1"><rect x="0" y="0" width="1205.29" height="474.956"/></clipPath><g clip-path="url(#_clip1)"><path d="M923.541,254.167l-2.391,-1.973l67.788,-91.281l-19.141,44.828l54.076,-48.954l2.223,2.155l-78.855,93.565l8.348,-33.879l-32.048,35.539Zm-25.651,2.142l-9.496,-7.727l5.019,11.148l-5.763,8.384l9.218,-4.182l9.853,9.222l-5.535,-12.472l6.782,-8.066l-10.078,3.693Zm32.145,29.653l2.305,2.074l32.121,-33.023l-3.285,16.144l38.608,-33.62l-7.448,27.212l81.368,-93.301l-2.246,-2.138l-62.007,60.302l4.265,-19.593l-34.01,31.956l7.125,-25.104l-56.796,69.091Zm-33.087,50.341l-7.53,-6.129l3.983,8.847l-4.579,6.663l7.275,-3.301l7.911,7.404l-4.443,-10.012l5.386,-6.405l-8.003,2.933Zm22.137,-3.79l-1.395,-2.77l133.239,-72.507l-19.133,18.689l84.304,-36.91l1.352,2.792l-136.56,71.773l17.95,-17.637l-79.757,36.57Zm52.517,-5.987l-7.531,-6.129l3.983,8.848l-4.579,6.662l7.276,-3.301l7.91,7.405l-4.442,-10.012l5.385,-6.405l-8.002,2.932Zm89.535,13.321l-99.992,15.133l-0.661,-3.023l40.34,-11.105l-14.653,-4.488l66.833,-13.038l-24.08,-5.812l141.521,-21.768l0.582,3.044l-93.056,20.161l31.526,3.854l-78.884,12.742l30.524,4.3Zm-81.478,33.119l-7.531,-6.129l3.983,8.848l-4.579,6.662l7.276,-3.301l7.91,7.405l-4.442,-10.012l5.385,-6.405l-8.002,2.932Zm-40.506,57.78l7.531,6.129l8.002,-2.932l-5.385,6.405l4.442,10.012l-7.91,-7.405l-7.276,3.301l4.579,-6.662l-3.983,-8.848Zm30.731,-10.509l-0.228,3.081l53.463,7.5l-20.763,7.848l86.434,1.353l0.195,-3.083l-47.942,-6.066l24.536,-8.439l-95.695,-2.194Z" style="fill:#6341ab;stroke:#6341ab;stroke-width:1px;"/><path d="M247.486,97.38l2.391,-1.972l-67.788,-91.282l19.141,44.828l-54.076,-48.954l-2.223,2.156l78.855,93.565l-8.348,-33.879l32.048,35.538Zm25.651,2.143l9.496,-7.728l-5.019,11.148l5.763,8.384l-9.218,-4.182l-9.853,9.223l5.535,-12.472l-6.782,-8.066l10.078,3.693Zm-32.145,29.652l-2.305,2.074l-32.121,-33.022l3.285,16.144l-38.608,-33.62l7.448,27.211l-81.368,-93.301l2.246,-2.138l62.007,60.303l-4.265,-19.594l34.01,31.956l-7.125,-25.104l56.796,69.091Zm33.086,50.341l7.531,-6.129l-3.983,8.848l4.579,6.662l-7.275,-3.301l-7.911,7.405l4.443,-10.012l-5.386,-6.405l8.002,2.932Zm-22.137,-3.789l1.396,-2.77l-133.239,-72.508l19.133,18.69l-84.304,-36.91l-1.352,2.791l136.56,71.774l-17.95,-17.638l79.756,36.571Zm-52.516,-5.988l7.531,-6.129l-3.983,8.848l4.579,6.662l-7.276,-3.301l-7.91,7.405l4.442,-10.012l-5.385,-6.405l8.002,2.932Zm-89.535,13.322l99.992,15.133l0.66,-3.024l-40.339,-11.105l14.653,-4.488l-66.833,-13.037l24.08,-5.812l-141.521,-21.768l-0.582,3.043l93.056,20.162l-31.527,3.854l78.885,12.741l-30.524,4.301Zm81.478,33.119l7.531,-6.129l-3.983,8.847l4.579,6.663l-7.276,-3.301l-7.911,7.404l4.443,-10.012l-5.385,-6.405l8.002,2.933Zm40.506,57.78l-7.531,6.128l-8.002,-2.932l5.385,6.405l-4.443,10.012l7.911,-7.404l7.276,3.301l-4.579,-6.663l3.983,-8.847Zm-30.731,-10.51l0.227,3.081l-53.462,7.5l20.762,7.849l-86.433,1.353l-0.195,-3.084l47.942,-6.066l-24.536,-8.439l95.695,-2.194Z" style="fill:#6341ab;stroke:#6341ab;stroke-width:1px;"/></g></svg>