<?xml version="1.0" encoding="UTF-8" standalone="no"?><!DOCTYPE svg PUBLIC "-//W3C//DTD SVG 1.1//EN" "http://www.w3.org/Graphics/SVG/1.1/DTD/svg11.dtd"><svg width="100%" height="100%" viewBox="0 0 1207 476" version="1.1" xmlns="http://www.w3.org/2000/svg" xmlns:xlink="http://www.w3.org/1999/xlink" xml:space="preserve" xmlns:serif="http://www.serif.com/" style="fill-rule:evenodd;clip-rule:evenodd;stroke-linejoin:round;stroke-miterlimit:2;"><rect id="Artboard2" x="0.839" y="0.591" width="1205.29" height="474.956" style="fill:none;"/><clipPath id="_clip1"><rect x="0.839" y="0.591" width="1205.29" height="474.956"/></clipPath><g clip-path="url(#_clip1)"><path d="M962.65,164.595l-1.844,-2.492l87.834,-72.198l-29.405,38.875l64.302,-34.439l1.637,2.63l-99.126,71.74l16.286,-30.859l-39.684,26.743Zm-25.41,-4.119l-7.346,-9.793l2.176,12.031l-7.618,6.743l9.955,-1.831l7.333,11.33l-2.357,-13.44l8.53,-6.189l-10.673,1.149Zm24.029,36.541l1.735,2.569l39.148,-24.283l-7.088,14.872l45.588,-23.295l-13.803,24.605l101.501,-70.877l-1.664,-2.617l-74.739,43.534l8.873,-17.982l-40.724,22.791l12.979,-22.639l-71.806,53.322Zm-44.27,40.855l-5.826,-7.767l1.727,9.548l-6.053,5.358l7.857,-1.445l5.888,9.097l-1.892,-10.789l6.773,-4.914l-8.474,0.912Zm22.397,1.671l-0.685,-3.025l146.81,-38.166l-23.081,13.513l90.724,-15.448l0.638,3.036l-149.856,36.652l21.679,-12.779l-86.229,16.217Zm52.407,6.879l-5.826,-7.767l1.727,9.548l-6.054,5.359l7.858,-1.445l5.887,9.096l-1.892,-10.789l6.774,-4.914l-8.474,0.912Zm83.664,34.56l-100.686,-9.475l0.09,-3.094l41.827,-1.029l-13.134,-7.895l68.003,3.496l-21.963,-11.458l142.588,13.071l-0.171,3.094l-95.17,-2.92l29.661,11.357l-79.626,-6.695l28.581,11.548Zm-87.066,12.451l-5.827,-7.767l1.727,9.548l-6.053,5.359l7.858,-1.445l5.887,9.096l-1.892,-10.789l6.773,-4.914l-8.473,0.912Zm-53.266,46.281l5.826,7.767l8.474,-0.912l-6.773,4.915l1.892,10.788l-5.888,-9.096l-7.857,1.445l6.053,-5.358l-1.727,-9.549Zm32.359,-2.772l-0.965,2.934l50.066,20.196l-22.043,2.599l83.545,22.196l0.935,-2.945l-45.056,-17.469l25.848,-2.261l-92.33,-25.25Z" style="fill:#6341ab;stroke:#6341ab;stroke-width:1px;"/><path d="M226.896,165.178l1.751,-2.557l-90.429,-68.921l30.814,37.768l-65.525,-32.051l-1.539,2.688l101.697,68.047l-17.41,-30.239l40.641,25.265Zm25.241,-5.05l6.981,-10.056l-1.732,12.103l7.86,6.458l-10.015,-1.464l-6.911,11.592l1.861,-13.517l-8.752,-5.871l10.708,0.755Zm-22.669,37.4l-1.64,2.631l-40.014,-22.827l7.63,14.601l-46.413,-21.603l14.697,24.081l-104.037,-67.098l1.566,-2.676l76.289,40.757l-9.527,-17.644l41.533,21.279l-13.802,-22.147l73.718,50.646Zm45.741,39.2l5.537,-7.976l-1.375,9.605l6.247,5.133l-7.906,-1.156l-5.549,9.307l1.494,-10.851l-6.949,-4.662l8.501,0.6Zm-22.32,2.494l0.574,-3.049l-148.114,-32.743l23.562,12.655l-91.231,-12.101l-0.526,3.056l151.102,31.119l-22.134,-11.973l86.767,13.036Zm-52.119,8.8l5.538,-7.975l-1.375,9.605l6.246,5.132l-7.906,-1.155l-5.549,9.307l1.494,-10.851l-6.949,-4.662l8.501,0.599Zm-82.336,37.613l100.269,-13.17l-0.203,-3.089l-41.837,0.51l12.835,-8.373l-67.828,5.994l21.526,-12.258l-142.011,18.304l0.285,3.086l94.998,-6.417l-29.223,12.44l79.325,-9.618l-28.136,12.591Zm87.465,9.242l5.537,-7.976l-1.375,9.605l6.246,5.132l-7.906,-1.155l-5.548,9.307l1.494,-10.851l-6.95,-4.662l8.502,0.6Zm54.931,44.292l-5.537,7.975l-8.501,-0.599l6.949,4.661l-1.494,10.851l5.549,-9.307l7.905,1.156l-6.246,-5.132l1.375,-9.605Zm-32.439,-1.582l1.072,2.897l-49.29,22.023l22.124,1.787l-82.673,25.253l-1.042,-2.909l44.384,-19.114l-25.914,-1.309l91.339,-28.628Z" style="fill:#6341ab;stroke:#6341ab;stroke-width:1px;"/></g></svg>